<?xml version="1.0" encoding="UTF-8"?>
<svg version="1.1" xmlns="http://www.w3.org/2000/svg" width="1024" height="878">
<path d="M0 0 C0.66 0 1.32 0 2 0 C2 51.81 2 103.62 2 157 C3.32 157.33 4.64 157.66 6 158 C6 167.9 6 177.8 6 188 C7.32 188.66 8.64 189.32 10 190 C18.03749039 196.68515074 25.38273975 204.26653732 32.7991333 211.62390137 C34.21158237 213.02440722 35.62795517 214.4209524 37.04443359 215.81738281 C42.36133412 221.12760501 47.2727061 226.59980064 51.96777344 232.46655273 C54.71813011 235.89524702 57.60078351 239.19735048 60.5 242.5 C65.0665237 247.73674151 69.54723829 253.02730714 73.91796875 258.4296875 C75.263073 260.09024772 76.61914967 261.74200648 77.98828125 263.3828125 C99.36193784 289.06340177 119.62890079 316.44529489 137 345 C135.625 347.5 135.625 347.5 134 350 C133.34 350 132.68 350 132 350 C132.02094727 350.67579102 132.04189453 351.35158203 132.06347656 352.04785156 C132.14671643 355.11508254 132.19868466 358.18207582 132.25 361.25 C132.28351562 362.31347656 132.31703125 363.37695312 132.3515625 364.47265625 C132.36445312 365.49746094 132.37734375 366.52226562 132.390625 367.578125 C132.41157227 368.52075195 132.43251953 369.46337891 132.45410156 370.43457031 C131.86655803 373.75387542 130.60735486 374.93811687 128 377 C127.34 377 126.68 377 126 377 C126 367.1 126 357.2 126 347 C122.7 346.01 119.4 345.02 116 344 C114.64777344 343.33484375 113.29554688 342.6696875 111.90234375 341.984375 C109.41195326 341.02696515 108.45375037 340.82916122 105.93017578 341.77929688 C103.69405774 343.15330334 101.63639057 344.64183188 99.5625 346.25 C94.33438264 350.21084099 90.72536108 352.43697133 84.10424805 352.78759766 C80.87586125 353.11347032 78.43339938 354.50350664 75.625 356.0625 C70.27529412 359 70.27529412 359 67 359 C67 358.34 67 357.68 67 357 C69.03198242 355.63061523 69.03198242 355.63061523 71.85546875 354.05859375 C73.37817383 353.18170898 73.37817383 353.18170898 74.93164062 352.28710938 C77.07573911 351.06907622 79.22668069 349.86299877 81.38476562 348.66992188 C87.84066921 344.91857348 92.85644236 341.46061321 95 334 C94.40371265 329.20096443 90.24362192 325.37263126 87.1875 321.75 C82.46119125 316.04537839 77.85551307 310.27466791 73.375 304.375 C72.83738037 303.67544189 72.29976074 302.97588379 71.74584961 302.25512695 C69.11131231 298.82069836 66.53688641 295.3627624 64.0546875 291.81640625 C59.78696917 285.22048321 59.78696917 285.22048321 53.421875 281.2421875 C51.03031674 281.23261382 51.03031674 281.23261382 48.875 281.80078125 C48.25625 281.86652344 47.6375 281.93226563 47 282 C46.54805488 281.51614366 46.09610975 281.03228731 45.63046932 280.53376865 C42.74816546 277.82240987 38.70014234 278.64056847 34.94555664 278.71264648 C34.01829773 278.71898102 33.09103882 278.72531555 32.13568115 278.73184204 C29.05994514 278.75947473 25.98544938 278.8123953 22.91015625 278.87109375 C21.33151196 278.89865596 21.33151196 278.89865596 19.72097588 278.92677498 C14.14342292 279.0273426 8.56675725 279.14923241 2.98999023 279.28637695 C-2.74961503 279.42277884 -8.48720509 279.48095733 -14.22817135 279.5212698 C-18.65914606 279.56759554 -23.08719631 279.67502425 -27.51663399 279.79835701 C-29.63033071 279.84642872 -31.74468749 279.87155294 -33.85893059 279.87249565 C-46.23215775 279.5926088 -46.23215775 279.5926088 -56.85159302 285.00857544 C-59.49364579 287.84876523 -61.69832375 290.88898145 -63.78563118 294.15260506 C-65.84107234 297.27950649 -68.22228724 300.14681363 -70.5625 303.0625 C-71.46531833 304.22127421 -72.36657901 305.3812653 -73.265625 306.54296875 C-76.46385609 310.62613608 -79.83047126 314.55950032 -83.20263672 318.49902344 C-86.65300497 322.54567381 -89.87798093 326.69667642 -93 331 C-87.05190681 335.04480925 -81.00705963 338.84626614 -74.8125 342.5 C-66.60898927 347.38073515 -58.53047372 352.4328286 -50.4909668 357.57836914 C-43.72763593 361.90593226 -36.9368889 366.18678823 -30.125 370.4375 C-29.14426514 371.04972412 -28.16353027 371.66194824 -27.15307617 372.29272461 C-22.40368302 375.25610729 -17.65245115 378.21653269 -12.90075684 381.17622375 C-11.20878671 382.2303974 -9.51723197 383.28523764 -7.82568359 384.34008789 C-5.6848338 385.6751158 -3.54325623 387.0089775 -1.40087891 388.34155273 C-0.44487793 388.93782471 0.51112305 389.53409668 1.49609375 390.1484375 C2.34357178 390.67614746 3.1910498 391.20385742 4.06420898 391.74755859 C6 393 6 393 7 394 C7.07205511 395.68608966 7.08386068 397.37500659 7.0625 399.0625 C7.04896484 400.44115234 7.04896484 400.44115234 7.03515625 401.84765625 C7.01775391 402.91306641 7.01775391 402.91306641 7 404 C2.89045291 402.50770636 -0.72950143 400.46957923 -4.4375 398.1875 C-5.78340853 397.37035929 -7.12979167 396.55399997 -8.4765625 395.73828125 C-9.20391602 395.29693848 -9.93126953 394.8555957 -10.68066406 394.40087891 C-22.88355967 387.03032996 -35.20680069 379.86047906 -47.5625 372.75 C-56.57298085 367.56330034 -65.57056964 362.35557846 -74.54489136 357.10656738 C-75.7839748 356.38210207 -77.02348123 355.65835962 -78.26345825 354.9354248 C-85.21865397 350.87911182 -92.05266367 346.73384922 -98.67993164 342.15234375 C-100.86194906 340.82229255 -100.86194906 340.82229255 -102.95385742 341.1472168 C-107.87587845 343.19859723 -112.14248678 345.23001669 -116 349 C-117.77696578 353.58007721 -117.86026806 357.81141461 -117.75 362.6875 C-117.73187256 363.94884766 -117.71374512 365.21019531 -117.69506836 366.50976562 C-117.3201133 372.23201917 -116.93123966 376.8862198 -112.76953125 381.08203125 C-109.2476001 383.80387338 -105.38953869 385.8098523 -101.39892578 387.7578125 C-97.48809686 389.7828784 -94.04032984 392.39660928 -90.5 395 C-89.08548462 396.00304072 -87.66880954 397.00304267 -86.25 398 C-77.75 404 -77.75 404 -75.62573242 405.49951172 C-74.20666042 406.50119043 -72.78755225 407.5028179 -71.3684082 408.50439453 C-67.86324726 410.97829495 -64.35868485 413.45303366 -60.85546875 415.9296875 C-53.24989959 421.30505217 -45.63209569 426.66235421 -38 432 C-20.95022569 443.92928515 -20.95022569 443.92928515 -15.0703125 448.1171875 C-12.29529494 450.09360029 -9.49643329 452.02890803 -6.6796875 453.9453125 C-5.30695378 454.90055629 -3.93454462 455.8562667 -2.5625 456.8125 C-1.92916748 457.23233154 -1.29583496 457.65216309 -0.64331055 458.0847168 C3.84763371 461.25951052 4.83270043 463.73286021 6 469 C6.19147948 471.4322091 6.29275573 473.87266066 6.31884766 476.31225586 C6.32889328 477.00578156 6.3389389 477.69930725 6.34928894 478.41384888 C6.3799055 480.68083958 6.39709529 482.94771341 6.4140625 485.21484375 C6.43279154 486.79668671 6.45236623 488.37851987 6.4727478 489.96034241 C6.52389177 494.10468745 6.56361189 498.24906483 6.60089111 502.39355469 C6.6410425 506.6302885 6.69208383 510.86688989 6.7421875 515.10351562 C6.83873656 523.40225301 6.92320796 531.70105639 7 540 C7.74838135 539.31800537 8.4967627 538.63601074 9.26782227 537.93334961 C10.2631645 537.02716001 11.25852689 536.12099257 12.25390625 535.21484375 C13.2291626 534.32659912 14.20441895 533.43835449 15.20922852 532.52319336 C17.43319166 530.51246297 19.67070023 528.52449845 21.9375 526.5625 C25.34689046 523.60116086 28.67778652 520.55830894 32 517.5 C35.84408724 513.9645059 39.7003859 510.45011771 43.65234375 507.03515625 C45.69686575 505.2627836 47.72673705 503.47572884 49.75390625 501.68359375 C51.1274792 500.47642029 52.50117843 499.26939051 53.875 498.0625 C54.54249268 497.46969238 55.20998535 496.87688477 55.89770508 496.26611328 C56.52700928 495.71552246 57.15631348 495.16493164 57.8046875 494.59765625 C58.37171387 494.09758057 58.93874023 493.59750488 59.52294922 493.08227539 C61 492 61 492 63 492 C61.63629701 494.99220268 60.05091917 497.29026529 57.875 499.75 C57.06675781 500.67039062 57.06675781 500.67039062 56.2421875 501.609375 C55.83226562 502.06828125 55.42234375 502.5271875 55 503 C56.55701931 507.67105792 59.08447373 511.08705685 62 515 C70.76335631 512.8717122 79.48453266 510.62418762 88.171875 508.203125 C89.03623169 507.96251343 89.90058838 507.72190186 90.7911377 507.47399902 C94.35753576 506.47956547 97.92319447 505.48258514 101.48730469 504.47998047 C104.1309176 503.73732335 106.77623597 503.00102618 109.421875 502.265625 C110.62804474 501.92352997 110.62804474 501.92352997 111.85858154 501.57452393 C115.39623173 500.59517874 118.30210633 500 122 500 C122.40774658 498.94002808 122.40774658 498.94002808 122.82373047 497.85864258 C124.03412167 494.91707542 125.3918207 492.10350564 126.8203125 489.26171875 C127.35527344 488.19501953 127.89023437 487.12832031 128.44140625 486.02929688 C128.99699219 484.92650391 129.55257812 483.82371094 130.125 482.6875 C130.68832031 481.56537109 131.25164063 480.44324219 131.83203125 479.28710938 C133.21955157 476.52382738 134.60893378 473.76149818 136 471 C135.04633545 471.33322266 134.0926709 471.66644531 133.11010742 472.00976562 C129.57266178 473.24442333 126.03312369 474.47298261 122.49291992 475.69970703 C120.96076587 476.23157201 119.4291849 476.76509085 117.89819336 477.30029297 C115.69793764 478.06913435 113.49569199 478.83201147 111.29296875 479.59375 C110.60849167 479.83436157 109.92401459 480.07497314 109.21879578 480.32287598 C106.34162782 481.31225239 104.06690063 482 101 482 C101 481.34 101 480.68 101 480 C101.61367432 479.75056641 102.22734863 479.50113281 102.85961914 479.24414062 C109.05883577 476.72349921 115.25623914 474.19843554 121.45228577 471.67001343 C125.28232659 470.10737262 129.11325137 468.54693828 132.9453125 466.98925781 C137.28895199 465.22350503 141.63088125 463.45359824 145.97189331 461.68139648 C147.68561984 460.98257381 149.39990653 460.28512307 151.11477661 459.58911133 C166.60888583 454.46778252 166.60888583 454.46778252 179.125 445.1875 C179.41375 444.465625 179.7025 443.74375 180 443 C184.34106974 443.84244504 187.53825833 446.01252523 191.25390625 448.3203125 C193.0893631 449.44299592 194.952566 450.5214873 196.83984375 451.5546875 C197.73832031 452.05226563 198.63679687 452.54984375 199.5625 453.0625 C200.38878906 453.50722656 201.21507812 453.95195312 202.06640625 454.41015625 C204.60152662 456.49458855 204.55026436 457.79518492 205 461 C205.05626371 462.65701987 205.06108885 464.31636942 205.02172852 465.97387695 C204.99158409 467.41480461 204.99158409 467.41480461 204.96083069 468.88484192 C204.93379562 469.9089769 204.90676056 470.93311188 204.87890625 471.98828125 C204.85529526 473.04661667 204.83168427 474.10495209 204.80735779 475.19535828 C204.73092775 478.56788234 204.64681439 481.94016474 204.5625 485.3125 C204.50925865 487.60220181 204.45651839 489.89191533 204.40429688 492.18164062 C204.2753406 497.78790917 204.14007948 503.39399895 204 509 C200.04462659 510.61153214 196.08519189 512.21284946 192.125 513.8125 C191.01640625 514.26431641 189.9078125 514.71613281 188.765625 515.18164062 C187.12207031 515.84389648 187.12207031 515.84389648 185.4453125 516.51953125 C184.36024414 516.95861816 183.27517578 517.39770508 182.15722656 517.85009766 C179.23003625 518.91621785 176.40482038 519.60085969 173.3671875 520.26171875 C170.01881922 521.2040356 170.01881922 521.2040356 167.890625 523.79394531 C167.13947588 526.01533429 167.13947588 526.01533429 166.61621094 528.42138672 C165.94826303 531.21649995 164.94731506 533.60833858 163.7578125 536.22265625 C163.12854858 537.62294067 163.12854858 537.62294067 162.48657227 539.05151367 C162.03725342 540.04513916 161.58793457 541.03876465 161.125 542.0625 C155.26399441 555.20904058 149.82781594 568.5062909 144.47892761 581.86738586 C142.8322498 585.96888016 141.14812386 590.05237921 139.42945862 594.1242218 C138.31103311 596.77837004 137.2077207 599.43867388 136.10592651 602.09976196 C135.34451802 603.92331759 134.56342057 605.73861444 133.78149414 607.5534668 C128.83184039 619.58208824 128.09575781 631.52797776 127.34277344 644.33850098 C125.84120615 669.40413735 118.82880757 686.2908933 103.78466797 706.53662109 C101.15590269 710.16510833 98.6989378 713.90085034 96.22875977 717.63842773 C93.72256502 721.42924676 91.17488341 725.19160533 88.625 728.953125 C88.16537369 729.63140854 87.70574738 730.30969208 87.23219299 731.00852966 C85.82182969 733.08926933 84.4109279 735.16964316 83 737.25 C82.02469772 738.68877371 81.04943706 740.12757562 80.07421875 741.56640625 C77.71662388 745.04459517 75.35847159 748.52240551 73 752 C65.16514037 746.9011231 57.5850173 741.45948613 50 736 C49.66005005 737.58699707 49.66005005 737.58699707 49.31323242 739.20605469 C48.45981049 743.18745289 47.60369491 747.16826811 46.74682617 751.14892578 C46.37859515 752.86133665 46.01106369 754.57389812 45.64428711 756.28662109 C44.60491326 761.13892302 43.55287933 765.98809426 42.47845459 770.83276367 C42.03632633 772.8354541 41.60484223 774.84048646 41.17431641 776.84570312 C40.9272998 777.93302734 40.6802832 779.02035156 40.42578125 780.140625 C40.21993408 781.06907227 40.01408691 781.99751953 39.80200195 782.95410156 C39.53734131 783.62924805 39.27268066 784.30439453 39 785 C38.01 785.33 37.02 785.66 36 786 C36.27024852 784.22907732 36.54126107 782.45827125 36.8125 780.6875 C36.99296875 779.50800781 37.1734375 778.32851563 37.359375 777.11328125 C37.81374396 774.1707358 38.28572593 771.23145525 38.765625 768.29296875 C44.49406032 733.11404998 45.47397943 692.54631957 24 662 C20.88045872 660.44022936 17.57040616 660.87895874 14.1484375 660.90234375 C13.37440582 660.9037587 12.60037415 660.90517365 11.80288696 660.90663147 C9.32688558 660.91223597 6.85097412 660.92478917 4.375 660.9375 C2.69791797 660.94251442 1.02083453 660.94707743 -0.65625 660.95117188 C-4.77086806 660.96220685 -8.88541878 660.97947446 -13 661 C-12.64398851 667.139195 -12.27117356 673.27705752 -11.88305664 679.41430664 C-11.75348137 681.5002905 -11.62842424 683.58656029 -11.50805664 685.6730957 C-11.33379102 688.68007402 -11.14305924 691.68563396 -10.94921875 694.69140625 C-10.89908127 695.61772354 -10.84894379 696.54404083 -10.79728699 697.49842834 C-10.30602381 704.72656621 -8.77063582 710.32067164 -4 716 C-4.66 716.99 -5.32 717.98 -6 719 C-4.68 720.32 -3.36 721.64 -2 723 C-2.29173096 723.51481934 -2.58346191 724.02963867 -2.8840332 724.56005859 C-7.75947243 735.21968224 -9.31375693 748.44812014 -11.7746582 759.89306641 C-12.13584697 761.55981404 -12.50345661 763.22518211 -12.87719727 764.88916016 C-16.16955022 777.8763843 -16.16955022 777.8763843 -15 791 C-14.34 791.99 -13.68 792.98 -13 794 C-12.92094936 796.33199388 -12.91201231 798.66832622 -13 801 C-16.69226698 799.76924434 -17.09823735 798.29953084 -18.83789062 794.98217773 C-20.01764213 792.96990831 -21.35465284 791.45716323 -22.90625 789.72265625 C-27.39716882 783.79655881 -28.30164801 776.62865718 -29.6875 769.5 C-29.97013976 768.1298222 -30.25463589 766.76002599 -30.54101562 765.390625 C-32.49553535 755.95379528 -34.24817511 746.47617626 -36 737 C-37.09296387 738.07858276 -37.09296387 738.07858276 -38.20800781 739.17895508 C-39.94596354 740.89404297 -41.68391927 742.60913086 -43.421875 744.32421875 C-46.0346739 746.94184384 -46.0346739 746.94184384 -48.203125 749.83203125 C-49.09257813 750.90517578 -49.09257813 750.90517578 -50 752 C-50.66 752 -51.32 752 -52 752 C-52.57724177 747.75090183 -53.14657346 743.5008363 -53.70898438 739.24975586 C-53.90088841 737.80741675 -54.0948525 736.36535002 -54.29101562 734.92358398 C-54.9209044 730.28779545 -55.48600541 725.65014302 -56 721 C-56.11375977 720.11111084 -56.22751953 719.22222168 -56.34472656 718.30639648 C-56.84912079 711.68370027 -53.78984643 707.93719043 -49.75 702.9375 C-49.12335449 702.12547119 -48.49670898 701.31344238 -47.85107422 700.47680664 C-46.55669792 698.80083894 -45.25372712 697.13147483 -43.94238281 695.46875 C-40.94974365 691.66513421 -38.03762656 687.80246826 -35.125 683.9375 C-34.60776367 683.26517334 -34.09052734 682.59284668 -33.55761719 681.90014648 C-30.903047 678.79892632 -30.903047 678.79892632 -30 675 C-34.6360023 674.52711088 -36.90815274 675.90137651 -40.6875 678.5 C-45.81944444 682 -45.81944444 682 -48 682 C-46.47091997 677.763377 -43.32477277 675.72730979 -39.8125 673.1875 C-27.30357104 663.97774908 -27.30357104 663.97774908 -20.47265625 650.4921875 C-20.22416442 648.32043703 -20.05562311 646.18447142 -20 644 C-26.24935286 650.81076045 -32.20021758 657.80416376 -38 665 C-38.73863281 665.89332031 -39.47726562 666.78664063 -40.23828125 667.70703125 C-46.31428705 675.11598165 -49.43947487 681.81116513 -52 691 C-54.2421875 691.2578125 -54.2421875 691.2578125 -57 691 C-59.0703125 689.3046875 -59.0703125 689.3046875 -61.125 686.875 C-61.90359375 685.96105469 -62.6821875 685.04710937 -63.484375 684.10546875 C-66.61795775 680.23714843 -69.70728683 676.33716698 -72.75878906 672.40380859 C-76.86135213 667.12437471 -81.14674153 662.01765527 -85.4921875 656.9375 C-86.73355469 655.4834375 -86.73355469 655.4834375 -88 654 C-88.82911392 653.09290787 -89.65822784 652.18581573 -90.51246643 651.25123596 C-93.14323876 648.07760023 -94.22363715 645.04234741 -95.30834961 641.04272461 C-95.4945134 640.37332352 -95.68067719 639.70392242 -95.8724823 639.01423645 C-96.48050224 636.8140127 -97.06639932 634.60853895 -97.65234375 632.40234375 C-98.07783758 630.84658846 -98.50474961 629.29122043 -98.93299866 627.73622131 C-100.05729843 623.63964535 -101.16311698 619.53830693 -102.26483154 615.43560791 C-103.36863103 611.33639648 -104.48825465 607.24152185 -105.60742188 603.14648438 C-106.90514518 598.39782706 -108.20058191 593.64865269 -109.48031616 588.89511108 C-111.24572054 582.34720499 -113.02629171 575.81360611 -115.00048828 569.32470703 C-115.29089493 568.36230606 -115.58130157 567.39990509 -115.88050842 566.40834045 C-116.3943041 564.72645553 -116.92153856 563.0485689 -117.46702576 561.37669373 C-120.03575741 552.95575982 -118.36953826 545.84472505 -114.9375 537.9375 C-114.65583984 537.26267578 -114.37417969 536.58785156 -114.08398438 535.89257812 C-113.39972959 534.25732517 -112.70138272 532.62798007 -112 531 C-112.99 531.33 -113.98 531.66 -115 532 C-116.2202647 534.5474139 -117.2328781 536.98034377 -118.1875 539.625 C-118.46013672 540.32496094 -118.73277344 541.02492188 -119.01367188 541.74609375 C-119.27083984 542.44089844 -119.52800781 543.13570312 -119.79296875 543.8515625 C-120.0252417 544.47885254 -120.25751465 545.10614258 -120.49682617 545.75244141 C-121.90317698 552.03427817 -120.55052924 557.62998546 -118.84448242 563.65405273 C-118.61521561 564.49078522 -118.38594879 565.3275177 -118.1497345 566.18960571 C-117.39366772 568.94008429 -116.62481879 571.68680386 -115.85546875 574.43359375 C-115.32389099 576.35479789 -114.7930026 578.27619289 -114.26277161 580.19776917 C-113.15097757 584.21974073 -112.03327153 588.24000397 -110.91088867 592.2590332 C-109.47659392 597.39546475 -108.05332485 602.53486617 -106.63402843 607.67545986 C-105.53813641 611.6424127 -104.43825717 615.60825069 -103.33699989 619.57371712 C-102.81116833 621.46761437 -102.28612165 623.36172972 -101.76189232 625.25607109 C-101.0262357 627.91062384 -100.28568522 630.56376261 -99.54370117 633.21655273 C-99.33006927 633.99030746 -99.11643738 634.76406219 -98.89633179 635.56126404 C-96.71924231 643.30458019 -94.41350087 650.16062366 -89.1875 656.4375 C-88.71465576 657.02241211 -88.24181152 657.60732422 -87.75463867 658.20996094 C-86.18108478 660.14953438 -84.59167735 662.07527892 -83 664 C-81.81476973 665.44373593 -80.62988308 666.887754 -79.4453125 668.33203125 C-77.05321306 671.24377482 -74.65551383 674.15078291 -72.25390625 677.0546875 C-58.74556271 693.40545239 -58.74556271 693.40545239 -58.77294922 699.3894043 C-58.77310028 700.49031906 -58.77325134 701.59123383 -58.77340698 702.72550964 C-58.78372955 703.91308365 -58.79405212 705.10065765 -58.8046875 706.32421875 C-58.80893234 708.14902519 -58.80893234 708.14902519 -58.81326294 710.01069641 C-58.82447397 713.90306358 -58.84958052 717.79520216 -58.875 721.6875 C-58.88502859 724.32356439 -58.89415465 726.95963238 -58.90234375 729.59570312 C-58.92441634 736.06388032 -58.95790312 742.53192383 -59 749 C-62.786607 747.73779767 -63.20572716 746.52750573 -65.3125 743.1875 C-68.99483729 737.50213308 -72.79807476 731.92089415 -76.6875 726.375 C-77.58130371 725.09870728 -77.58130371 725.09870728 -78.49316406 723.79663086 C-83.1429226 717.17675149 -87.86371202 710.60988059 -92.64916992 704.08740234 C-94.11938016 702.07153482 -95.56700408 700.04246566 -97 698 C-97.4441626 697.37158203 -97.8883252 696.74316406 -98.34594727 696.09570312 C-101.93459552 690.73077271 -103.89605401 685.13431941 -105.8125 679 C-106.12380859 678.03449219 -106.43511719 677.06898438 -106.75585938 676.07421875 C-107.51370115 673.71907971 -108.26146886 671.36125083 -109 669 C-109.15323086 681.14248171 -108.67320693 693.1913867 -108 705.3125 C-106.29795925 736.27193583 -106.29795925 736.27193583 -109 741 C-111.83866551 742.1370067 -113.3552947 742.2128573 -116.25830078 741.25439453 C-117.02126465 740.84302246 -117.78422852 740.43165039 -118.5703125 740.0078125 C-119.87403809 739.30833496 -119.87403809 739.30833496 -121.20410156 738.59472656 C-126.14900236 735.77425049 -131.02664216 732.85812173 -135.875 729.875 C-136.89335937 729.25496094 -137.91171875 728.63492188 -138.9609375 727.99609375 C-143.09785765 725.46495181 -147.15976 722.96902803 -151 720 C-150.649375 719.13375 -150.29875 718.2675 -149.9375 717.375 C-148.87115033 713.53614119 -148.76578909 711.77977092 -150 708 C-153.10331963 703.36112775 -157.26911688 699.78724667 -161.484375 696.19140625 C-164.781865 693.31890331 -167.98503617 690.35261601 -171.1875 687.375 C-171.83775146 686.77856689 -172.48800293 686.18213379 -173.15795898 685.56762695 C-176.39119008 682.57215104 -179.45860281 679.54781992 -182.33203125 676.203125 C-187.96229434 669.3249725 -187.96229434 669.3249725 -195.93359375 666.26171875 C-198.56892785 666.19991328 -200.95053033 666.43059658 -203.58984375 666.73828125 C-207.28499046 667.02187212 -209.59786505 666.38682448 -213 665 C-210.13865726 667.39983585 -207.23164443 669.48043506 -204.0625 671.4375 C-198.96288902 674.78067259 -194.70489739 678.86787942 -190.29516602 683.04638672 C-185.97679734 687.12880748 -181.52033348 690.94563103 -176.87890625 694.66015625 C-172.70638941 698.05138771 -168.65035538 701.57517916 -164.59375 705.10375977 C-161.49760359 707.83981988 -161.49760359 707.83981988 -158 710 C-159.39252925 717.42682268 -163.4841244 721.80374946 -168.9765625 726.796875 C-171 728 -171 728 -172.90625 727.91796875 C-175.70696973 726.69004126 -178.00620587 725.08768766 -180.5 723.3125 C-181.65084612 722.49711977 -182.80190248 721.68203621 -183.953125 720.8671875 C-184.58927734 720.4144043 -185.22542969 719.96162109 -185.88085938 719.49511719 C-188.23550486 717.83384427 -190.60842188 716.20095713 -192.984375 714.5703125 C-194.73962281 713.35943222 -196.4948312 712.1484948 -198.25 710.9375 C-199.07693359 710.37264893 -199.90386719 709.80779785 -200.75585938 709.22583008 C-217.81333242 697.38735841 -226.50913075 683.32401564 -230.41943359 662.79833984 C-230.64907447 661.20367833 -230.83122704 659.60224717 -231 658 C-231.72574219 657.73445312 -232.45148438 657.46890625 -233.19921875 657.1953125 C-244.08791651 652.54825321 -248.48163548 644.43654291 -253.01904297 634.18066406 C-254.00029982 631.99933349 -255.03742966 629.85487516 -256.09765625 627.7109375 C-256.79463705 626.28663748 -257.49126205 624.86216329 -258.1875 623.4375 C-258.4963916 622.81496338 -258.8052832 622.19242676 -259.12353516 621.55102539 C-265.04465656 609.12233057 -267.51918891 598.09906212 -267.97009277 584.48852539 C-268.61904387 567.89012233 -272.1587028 556.04096536 -280.22607422 541.43408203 C-283.73251201 534.64608947 -286.48426069 527.52838916 -289.3125 520.4375 C-289.62610474 519.6556131 -289.93970947 518.8737262 -290.26281738 518.06814575 C-309.29146321 470.57724332 -326.35919953 422.60392449 -339 373 C-339.38765533 371.48327698 -339.38765533 371.48327698 -339.78314209 369.93591309 C-349.83430617 330.55141581 -357.43781538 291.40922971 -363.265625 251.1875 C-363.50215034 249.57202019 -363.50215034 249.57202019 -363.74345398 247.92390442 C-364.40518513 243.359305 -365.04357386 238.8021633 -365.52172852 234.21435547 C-365.59804504 233.51874512 -365.67436157 232.82313477 -365.75299072 232.10644531 C-365.93860376 230.35369854 -366.10107694 228.59854017 -366.26098633 226.84326172 C-367.73907263 221.15651144 -372.42288015 218.27479017 -377 215 C-378.7378121 213.59395203 -380.46685364 212.17700312 -382.1875 210.75 C-383.09886719 210.01265625 -384.01023437 209.2753125 -384.94921875 208.515625 C-388.52056499 205.57075051 -392.01214487 202.54283024 -395.5 199.5 C-399.78206292 195.76584832 -404.08331835 192.07540896 -408.5 188.5 C-413.51050885 184.43963209 -418.38623442 180.23884011 -423.24658203 176.0012207 C-426.3052808 173.3345936 -429.3695974 170.67746709 -432.47265625 168.0625 C-449.91315741 153.3521649 -465.95288465 137.19265219 -482 121 C-481.01 120.01 -481.01 120.01 -480 119 C-479.05382812 119.71542969 -478.10765625 120.43085938 -477.1328125 121.16796875 C-467.60291684 128.35506787 -457.97545456 135.39407693 -448.28222656 142.35888672 C-444.5170093 145.06639532 -440.75883948 147.78364797 -437 150.5 C-435.50003434 151.58338088 -434.00003433 152.6667142 -432.5 153.75 C-423.5 160.25 -423.5 160.25 -421.24902344 161.87573242 C-419.75231299 162.95667191 -418.25556832 164.03756401 -416.75878906 165.1184082 C-412.95817363 167.8629754 -409.15819702 170.60841966 -405.359375 173.35546875 C-398.03176843 178.65313026 -390.69667806 183.93929102 -383.33374023 189.18774414 C-378.48100395 192.64979553 -373.64525336 196.13512236 -368.8125 199.625 C-368.04373535 200.17921631 -367.2749707 200.73343262 -366.48291016 201.30444336 C-363.20371474 203.67118235 -359.92949899 206.04207633 -356.69140625 208.46484375 C-355.76199219 209.15707031 -354.83257812 209.84929687 -353.875 210.5625 C-353.10929688 211.14128906 -352.34359375 211.72007812 -351.5546875 212.31640625 C-349.42395746 213.72060296 -347.4062692 214.80946754 -345.1171875 215.91015625 C-341.1452804 217.84788678 -337.75125652 220.19597086 -334.25 222.875 C-328.28442409 227.34268931 -322.24046387 231.6772497 -316.125 235.9375 C-315.27607178 236.52950195 -314.42714355 237.12150391 -313.55249023 237.73144531 C-311.8523358 238.91700478 -310.15206044 240.10239084 -308.45166016 241.28759766 C-304.72959946 243.88733214 -301.02007456 246.50466412 -297.3125 249.125 C-296.6230127 249.61218506 -295.93352539 250.09937012 -295.22314453 250.60131836 C-293.84090269 251.57817403 -292.45874081 252.55514286 -291.07666016 253.53222656 C-287.55232487 256.02320984 -284.02607528 258.51148065 -280.5 261 C-276.28423746 263.97526452 -272.06881222 266.95099792 -267.85546875 269.9296875 C-260.24990063 275.30505144 -252.63223195 280.66255014 -245 286 C-236.67598181 291.82123683 -228.37081651 297.668542 -220.07666016 303.53222656 C-216.55232484 306.02320986 -213.02605299 308.51144903 -209.5 311 C-208.08332432 311.99998722 -206.66665764 312.99998722 -205.25 314 C-204.54875 314.495 -203.8475 314.99 -203.125 315.5 C-162.74999999 344.00000001 -162.74999999 344.00000001 -160.62329102 345.5012207 C-159.21233902 346.49717727 -157.80136909 347.49310843 -156.39038086 348.48901367 C-152.76112916 351.05066574 -149.13222851 353.61281286 -145.50390625 356.17578125 C-138.01348059 361.46621604 -130.5187964 366.74992936 -123 372 C-122.82520047 368.43812343 -122.71898857 364.87735227 -122.625 361.3125 C-122.57472656 360.30509766 -122.52445312 359.29769531 -122.47265625 358.25976562 C-122.37844216 353.50195398 -122.44756469 350.82311855 -125.14453125 346.8046875 C-130.29467063 343.44890281 -137.20213991 344.66587126 -143.0625 344.8125 C-153.7828487 344.7585661 -160.25300608 344.57805296 -168.09765625 336.8984375 C-168.55156738 336.42374023 -169.00547852 335.94904297 -169.47314453 335.45996094 C-172.41768932 332.64442243 -175.86776157 330.5006907 -179.25 328.25 C-180.5991342 327.3283824 -181.94809863 326.4065162 -183.296875 325.484375 C-187.00791154 322.97630443 -190.77310302 320.55675785 -194.59375 318.21875 C-195.0578125 317.8165625 -195.521875 317.414375 -196 317 C-196 314 -196 314 -194.17138672 312.16967773 C-193.09655029 311.09568726 -193.09655029 311.09568726 -192 310 C-190.51091124 307.31635189 -190.51091124 307.31635189 -189.2578125 304.28515625 C-188.50588623 302.56607056 -188.50588623 302.56607056 -187.73876953 300.81225586 C-187.34555511 299.89765091 -187.34555511 299.89765091 -186.94439697 298.96456909 C-185.52811801 295.67695571 -184.07530836 292.40552279 -182.625 289.1328125 C-182.17630051 288.11824226 -182.17630051 288.11824226 -181.71853638 287.08317566 C-173.05418646 267.55431734 -163.36222786 248.56147526 -153.1796875 229.7890625 C-152.35936035 228.26007324 -152.35936035 228.26007324 -151.52246094 226.70019531 C-150 224 -150 224 -148.57910156 221.97949219 C-146.96324714 219.67508592 -145.89646434 217.85008767 -146.24462891 214.99145508 C-146.99443412 212.55742626 -147.94224353 210.31714209 -149 208 C-149.58491211 206.64382568 -149.58491211 206.64382568 -150.18164062 205.26025391 C-151.4990911 202.25855126 -152.86757325 199.2848002 -154.25 196.3125 C-154.73364014 195.25901367 -155.21728027 194.20552734 -155.71557617 193.12011719 C-157.83978607 188.52054745 -159.98707469 183.94840585 -162.34765625 179.46484375 C-162.68442383 178.82313232 -163.02119141 178.1814209 -163.36816406 177.52026367 C-164.24608197 175.87450806 -165.14750985 174.24135299 -166.05078125 172.609375 C-167 170 -167 170 -166.5 167.8671875 C-157.14223796 156.21872329 -134.69757139 148.80035735 -121 144 C-120.34 144 -119.68 144 -119 144 C-119.00942627 143.20432617 -119.01885254 142.40865234 -119.02856445 141.58886719 C-119.09981948 130.22877997 -118.8378883 118.88611422 -118.32250977 107.53759766 C-118.23223909 105.33943331 -118.16203894 103.14035617 -118.11157227 100.94091797 C-117.62723955 80.61704984 -117.62723955 80.61704984 -112.11201477 74.59197998 C-109.87414989 72.52445919 -107.4942396 70.74547629 -105 69 C-103.63231696 67.80698705 -102.27483658 66.60193426 -100.9375 65.375 C-100.29941406 64.83101563 -99.66132813 64.28703125 -99.00390625 63.7265625 C-96.74766614 61.78258954 -94.56636107 59.76676482 -92.375 57.75 C-86.16815832 52.16572907 -79.64712026 47.04496853 -73 42 C-72.32437012 41.4838916 -71.64874023 40.9677832 -70.95263672 40.43603516 C-52.28797051 26.26607248 -32.3123785 15.04906998 -10.27099609 7.00390625 C-9.38105957 6.67261719 -8.49112305 6.34132813 -7.57421875 6 C-6.76944092 5.71125 -5.96466309 5.4225 -5.13549805 5.125 C-2.63292277 3.80662034 -1.62348793 2.27317908 0 0 Z M-128 160 C-130.77426174 161.93262674 -133.54378487 163.87193733 -136.3125 165.8125 C-137.49102539 166.63331055 -137.49102539 166.63331055 -138.69335938 167.47070312 C-139.45068359 168.00244141 -140.20800781 168.53417969 -140.98828125 169.08203125 C-141.68477783 169.56905518 -142.38127441 170.0560791 -143.09887695 170.55786133 C-144.89913971 171.92349021 -146.44736024 173.36240047 -148 175 C-147.37351562 176.09699219 -146.74703125 177.19398438 -146.1015625 178.32421875 C-145.27587649 179.77855207 -144.45036483 181.23298438 -143.625 182.6875 C-143.2125 183.40873047 -142.8 184.12996094 -142.375 184.87304688 C-140.31567728 188.51007651 -138.41710948 192.05233788 -137 196 C-134.87902147 195.20781512 -134.87902147 195.20781512 -134.28564453 193.34521484 C-134.07020996 192.64090332 -133.85477539 191.9365918 -133.6328125 191.2109375 C-133.38660156 190.43363281 -133.14039063 189.65632813 -132.88671875 188.85546875 C-132.38615657 187.22543295 -131.88613999 185.59522948 -131.38671875 183.96484375 C-129.76766743 178.85602378 -127.73396717 174.60395337 -125 170 C-125 169.34 -125 168.68 -125 168 C-124.34 168 -123.68 168 -123 168 C-124.20358597 164.57440916 -125.35892646 162.46741391 -128 160 Z M5 190 C-9.86932817 202.11210176 -24.34376964 215.4546563 -36.1328125 230.62890625 C-38.17034153 233.21631236 -40.33920115 235.63334015 -42.5625 238.0625 C-46.93661948 242.87478689 -50.99242507 247.88083495 -55 253 C-55.80953125 254.02609375 -56.6190625 255.0521875 -57.453125 256.109375 C-59.78998785 259.07218326 -62.11781546 262.04197421 -64.44335938 265.01367188 C-66.07863669 267.10034318 -67.71906903 269.18290507 -69.359375 271.265625 C-76.94770536 280.92871515 -84.25758034 290.75478731 -91.39550781 300.75439453 C-94.06481682 304.49028988 -96.75094701 308.21399613 -99.4375 311.9375 C-99.96182617 312.66654541 -100.48615234 313.39559082 -101.02636719 314.14672852 C-103.95612801 318.21054721 -106.92189089 322.24352666 -109.9296875 326.25 C-110.90143921 327.54949585 -110.90143921 327.54949585 -111.89282227 328.87524414 C-113.15020668 330.55351572 -114.4135115 332.22737169 -115.68334961 333.89624023 C-116.24803955 334.65106689 -116.81272949 335.40589355 -117.39453125 336.18359375 C-117.89831299 336.84931396 -118.40209473 337.51503418 -118.92114258 338.20092773 C-120.25714518 340.0791815 -120.25714518 340.0791815 -120 343 C-112.26131532 336.92387664 -105.83860106 331.01806523 -100.1171875 322.91796875 C-97.43284932 319.21833662 -94.43751448 315.89800415 -91.3359375 312.546875 C-89.42947075 310.46825239 -87.57085295 308.36423405 -85.72265625 306.234375 C-81.9358028 301.89349637 -78.01743216 297.68757523 -74.0625 293.5 C-73.39798828 292.79230469 -72.73347656 292.08460938 -72.04882812 291.35546875 C-68.06623749 287.12951904 -64.01493592 282.99349574 -59.85717773 278.93945312 C-57.88287641 277.02299017 -57.88287641 277.02299017 -56.46308899 274.41999817 C-53.33412695 271.34577615 -51.65694347 271.39427055 -47.41003418 271.31443787 C-46.08509949 271.32737633 -46.08509949 271.32737633 -44.73339844 271.34057617 C-43.79647156 271.33009247 -42.85954468 271.31960876 -41.89422607 271.30880737 C-38.79894046 271.28001777 -35.70477073 271.28635361 -32.609375 271.29296875 C-30.46273392 271.27985612 -28.31610519 271.26455324 -26.16949463 271.24714661 C-20.52072668 271.20723314 -14.87228102 271.19710203 -9.22338867 271.19311523 C-3.45872176 271.18379582 2.30575484 271.14638972 8.0703125 271.11132812 C19.38019939 271.04668752 30.68994456 271.01350047 42 271 C40.40755791 265.48069725 38.77076568 260.08129658 36.49609375 254.796875 C36.01124512 253.66934814 35.52639648 252.54182129 35.02685547 251.38012695 C34.50236816 250.18218506 33.97788086 248.98424316 33.4375 247.75 C33.16520569 247.12491547 32.89291138 246.49983093 32.61236572 245.85580444 C27.40299732 233.91434931 21.92273338 222.09987461 16.375 210.3125 C15.98005341 209.46868774 15.58510681 208.62487549 15.17819214 207.75549316 C14.05043298 205.3504601 12.91355093 202.949978 11.7734375 200.55078125 C11.43642319 199.83024063 11.09940887 199.10970001 10.75218201 198.36732483 C9.19638921 195.12132626 7.82814197 192.29998181 5 190 Z M-342 246 C-342.44137084 250.44535828 -342.44137084 250.44535828 -340.234375 254.16796875 C-339.00460937 255.16763672 -339.00460937 255.16763672 -337.75 256.1875 C-336.38488281 257.33412109 -336.38488281 257.33412109 -334.9921875 258.50390625 C-334.00476563 259.32761719 -333.01734375 260.15132813 -332 261 C-329.9369129 262.85201437 -327.9059459 264.73786386 -325.875 266.625 C-322.65529919 269.59497333 -319.411773 272.52131476 -316.10546875 275.39453125 C-312.12969456 278.86179808 -308.27231533 282.44067606 -304.4375 286.0625 C-303.0509379 287.36735398 -301.66421481 288.67203691 -300.27734375 289.9765625 C-299.57593262 290.63688477 -298.87452148 291.29720703 -298.15185547 291.97753906 C-294.60975248 295.3066497 -291.05501878 298.6221935 -287.5 301.9375 C-286.52051392 302.8512439 -286.52051392 302.8512439 -285.52124023 303.78344727 C-284.01431717 305.18913318 -282.50718418 306.59459406 -281 308 C-278.00675737 306.9024777 -277.15389099 306.32317108 -275.75 303.375 C-275.5025 302.59125 -275.255 301.8075 -275 301 C-282.34400073 294.69098588 -289.69849825 288.3955988 -297.09790039 282.15161133 C-301.12650416 278.74860881 -305.12794948 275.31496841 -309.125 271.875 C-314.14783185 267.55285182 -319.24454322 263.33755946 -324.3984375 259.171875 C-327.96154159 256.19727159 -331.34331422 253.04070374 -334.7109375 249.84765625 C-337.06619015 247.94657348 -339.14666993 246.96287287 -342 246 Z M-328 300 C-327.44513621 309.0216742 -324.83754619 317.47995965 -322.375 326.125 C-321.91874467 327.74156122 -321.46269151 329.35817952 -321.00683594 330.97485352 C-319.88615229 334.93762254 -318.75424629 338.89706637 -317.61633301 342.85491943 C-317.05542814 344.80708834 -316.49775155 346.76018408 -315.94042969 348.71337891 C-312.73363581 359.89422409 -309.41399144 370.66780388 -304 381 C-303.34 381 -302.68 381 -302 381 C-301.34 379.35 -300.68 377.7 -300 376 C-282.65989848 382.68020305 -282.65989848 382.68020305 -281 386 C-280.01 385.67 -279.02 385.34 -278 385 C-278.08936507 381.05021782 -278.23001776 377.10566503 -278.41503906 373.15917969 C-278.49813973 371.16953949 -278.5424853 369.17840074 -278.5859375 367.1875 C-279.06680132 357.66639633 -281.35251547 352.74340079 -288 346 C-289.16982422 344.55173828 -289.16982422 344.55173828 -290.36328125 343.07421875 C-294.82272355 337.61385955 -299.34348413 332.21081753 -303.91113281 326.84106445 C-306.8422482 323.38916913 -309.71689231 319.89813333 -312.5625 316.375 C-317.15753302 310.73299743 -321.91893935 305.21211975 -327 300 C-327.33 300 -327.66 300 -328 300 Z M-213 355 C-213 355.66 -213 356.32 -213 357 C-212.34 356.67 -211.68 356.34 -211 356 C-211.66 355.67 -212.32 355.34 -213 355 Z M-210 358 C-209.01 359.32 -208.02 360.64 -207 362 C-206.34 361.67 -205.68 361.34 -205 361 C-206.37485532 359.45833358 -206.37485532 359.45833358 -208 358 C-208.66 358 -209.32 358 -210 358 Z M-204 363 C-203.01 364.32 -202.02 365.64 -201 367 C-200.34 366.67 -199.68 366.34 -199 366 C-200.37485532 364.45833358 -200.37485532 364.45833358 -202 363 C-202.66 363 -203.32 363 -204 363 Z M-197 369 C-196.01 370.32 -195.02 371.64 -194 373 C-193.34 372.67 -192.68 372.34 -192 372 C-193.37485532 370.45833358 -193.37485532 370.45833358 -195 369 C-195.66 369 -196.32 369 -197 369 Z M-191 374 C-190.01 375.32 -189.02 376.64 -188 378 C-187.34 377.67 -186.68 377.34 -186 377 C-187.37485532 375.45833358 -187.37485532 375.45833358 -189 374 C-189.66 374 -190.32 374 -191 374 Z M-184 380 C-183.01 381.485 -183.01 381.485 -182 383 C-181.34 382.67 -180.68 382.34 -180 382 C-181.32 381.34 -182.64 380.68 -184 380 Z M-178 385 C-177.01 386.32 -176.02 387.64 -175 389 C-174.34 388.67 -173.68 388.34 -173 388 C-174.37485532 386.45833358 -174.37485532 386.45833358 -176 385 C-176.66 385 -177.32 385 -178 385 Z M-171 391 C-170.01 392.485 -170.01 392.485 -169 394 C-168.34 393.67 -167.68 393.34 -167 393 C-168.32 392.34 -169.64 391.68 -171 391 Z M-164 397 C-163.67 397.66 -163.34 398.32 -163 399 C-162.34 398.67 -161.68 398.34 -161 398 C-161.99 397.67 -162.98 397.34 -164 397 Z M-158 402 C-157.01 403.485 -157.01 403.485 -156 405 C-155.34 404.67 -154.68 404.34 -154 404 C-155.32 403.34 -156.64 402.68 -158 402 Z M-151 408 C-150.67 408.66 -150.34 409.32 -150 410 C-149.34 409.67 -148.68 409.34 -148 409 C-148.99 408.67 -149.98 408.34 -151 408 Z M-138 419 C-137.67 419.66 -137.34 420.32 -137 421 C-136.34 420.67 -135.68 420.34 -135 420 C-135.99 419.67 -136.98 419.34 -138 419 Z M-131 425 C-130.67 425.66 -130.34 426.32 -130 427 C-129.34 426.67 -128.68 426.34 -128 426 C-128.99 425.67 -129.98 425.34 -131 425 Z M-191 462 C-191 477.84 -191 493.68 -191 510 C-188.03 508.35 -185.06 506.7 -182 505 C-181.06027344 504.62617187 -180.12054688 504.25234375 -179.15234375 503.8671875 C-176.26650069 502.57441125 -174.87330865 501.58533547 -173 499 C-171.29215953 492.87186655 -171.36585891 486.13345811 -173 480 C-175.70481806 475.7278552 -179.04242838 473.07747211 -183 470 C-184.3913848 468.49183826 -185.75021792 466.95247241 -187.0625 465.375 C-188.02172928 464.23295291 -188.99414912 463.10120678 -190 462 C-190.33 462 -190.66 462 -191 462 Z M-259 473 C-260.88386003 475.26465501 -262.57170964 477.64304848 -264.25 480.0625 C-264.69601562 480.68705078 -265.14203125 481.31160156 -265.6015625 481.95507812 C-267.47318032 484.61220828 -268.96671893 486.90015678 -270 490 C-269.16585387 492.33584394 -269.16585387 492.33584394 -267.7890625 494.83203125 C-267.29027588 495.78916016 -266.79148926 496.74628906 -266.27758789 497.73242188 C-265.73223389 498.74884766 -265.18687988 499.76527344 -264.625 500.8125 C-264.07642334 501.84826172 -263.52784668 502.88402344 -262.96264648 503.95117188 C-257.88300358 513.43179196 -252.49077061 522.60694769 -245.8125 531.0625 C-244 534 -244 534 -244.5625 536.625 C-245.036875 537.40875 -245.51125 538.1925 -246 539 C-246.33 539.9075 -246.66 540.815 -247 541.75 C-248 544 -248 544 -250 545 C-250.20625 544.34 -250.4125 543.68 -250.625 543 C-252.20851619 539.54505558 -254.27789431 536.90626741 -256.66015625 533.96484375 C-258.04321784 531.93662224 -258.42827682 530.35266618 -259 528 C-259.66 527.67 -260.32 527.34 -261 527 C-261.92628675 533.13664974 -260.74793986 535.90533078 -257.0625 540.9375 C-254.65398918 544.07537127 -254.65398918 544.07537127 -252 547 C-250.00041636 547.04080783 -247.99954746 547.04254356 -246 547 C-245.84144531 546.30132813 -245.68289063 545.60265625 -245.51953125 544.8828125 C-245.28621094 543.97273437 -245.05289063 543.06265625 -244.8125 542.125 C-244.59207031 541.22007812 -244.37164062 540.31515625 -244.14453125 539.3828125 C-243 537 -243 537 -240.93359375 536.02734375 C-239.96550781 535.68832031 -238.99742187 535.34929687 -238 535 C-235.0194911 533.24707275 -232.14650485 531.32529074 -229.25 529.4375 C-222.81462228 525.32118294 -216.33559379 521.34102906 -209.625 517.6875 C-208.93051758 517.2968335 -208.23603516 516.90616699 -207.52050781 516.50366211 C-204.56189156 514.92920874 -202.53406018 513.96122577 -199.1484375 514.20703125 C-197 515 -197 515 -195 516 C-194.37137877 513.14702675 -193.90271804 510.88062699 -194 508 C-195.63738214 505.74154188 -196.82858637 504.64323194 -199 503 C-199.61359375 502.46375 -200.2271875 501.9275 -200.859375 501.375 C-211.20044823 492.57408661 -247.37640215 462.5018083 -259 473 Z M-126 470 C-126 474.27512076 -125.45718402 475.40887752 -123.33203125 478.95703125 C-122.48608398 480.37918945 -122.48608398 480.37918945 -121.62304688 481.83007812 C-121.02556641 482.81427734 -120.42808594 483.79847656 -119.8125 484.8125 C-119.23435547 485.78509766 -118.65621094 486.75769531 -118.06054688 487.75976562 C-116.40187355 490.52796958 -114.7399969 493.28205392 -113 496 C-112.66768372 496.59463043 -112.33536743 497.18926086 -111.99298096 497.8019104 C-109.77912472 501.43049984 -108.04577695 503.3535401 -103.90673828 504.57324219 C-102.30071459 504.92682172 -100.68774662 505.24982714 -99.0703125 505.546875 C-98.2029245 505.72961975 -97.3355365 505.9123645 -96.44186401 506.10064697 C-93.674287 506.67723198 -90.90070848 507.2140911 -88.125 507.75 C-86.29894528 508.12370271 -84.47341604 508.4999829 -82.6484375 508.87890625 C-79.09514327 509.61374117 -75.53764019 510.31667588 -71.97387695 510.9987793 C-68.80890202 511.61288912 -65.69569441 512.31238593 -62.57885742 513.13598633 C-56.14126705 515.01974787 -56.14126705 515.01974787 -49.71972656 514.10595703 C-47.8328944 512.60657206 -46.50333452 511.11485008 -45.0625 509.1875 C-44.55783203 508.60162109 -44.05316406 508.01574219 -43.53320312 507.41210938 C-42.3098946 505.97909082 -41.14785736 504.49413835 -40 503 C-40.99 501.02 -40.99 501.02 -42 499 C-42.33 499.66 -42.66 500.32 -43 501 C-43.91422729 500.52188118 -43.91422729 500.52188118 -44.84692383 500.03410339 C-50.67870015 497.04266341 -56.51148237 494.54375659 -62.6875 492.36328125 C-63.58074478 492.0418364 -64.47398956 491.72039154 -65.39430237 491.38920593 C-68.26099768 490.35833683 -71.13047315 489.33545719 -74 488.3125 C-77.94796846 486.89567543 -81.89418673 485.47402888 -85.83984375 484.05078125 C-86.80534653 483.70290558 -87.7708493 483.35502991 -88.76560974 482.99661255 C-97.8110429 479.72750926 -106.78629123 476.29540971 -115.72460938 472.7434082 C-117.13129883 472.18979614 -117.13129883 472.18979614 -118.56640625 471.625 C-119.35990479 471.30789063 -120.15340332 470.99078125 -120.97094727 470.6640625 C-123.11937207 469.84447859 -123.11937207 469.84447859 -126 470 Z M131.671875 501.52734375 C129.80309062 503.58553195 128.40531045 505.60022123 127 508 C126.42507813 508.98097656 125.85015625 509.96195313 125.2578125 510.97265625 C123.77470148 513.62106878 122.36128008 516.28741258 121 519 C121.31751221 519.51385254 121.63502441 520.02770508 121.9621582 520.55712891 C123.41488538 522.91148486 124.86371679 525.26821521 126.3125 527.625 C126.81201172 528.43324219 127.31152344 529.24148438 127.82617188 530.07421875 C130.4228001 534.30448724 132.87316177 538.51404087 135 543 C135.66 543 136.32 543 137 543 C137.27150879 542.47156494 137.54301758 541.94312988 137.82275391 541.39868164 C139.08467328 538.95040852 140.35449779 536.50632976 141.625 534.0625 C142.0792334 533.18094238 142.5334668 532.29938477 143.00146484 531.39111328 C145.2629199 527.06195029 147.49333582 523.14654749 150.625 519.375 C154.94298339 513.44383742 153.43081536 504.94889218 153 498 C141.87216009 497.80160488 141.87216009 497.80160488 131.671875 501.52734375 Z M99.75390625 524.125 C98.86517319 524.35074707 97.97644012 524.57649414 97.06077576 524.80908203 C93.26795847 525.77252216 89.48159831 526.76022842 85.69506836 527.74804688 C82.92540302 528.46673488 80.15240126 529.17126216 77.37890625 529.875 C76.1036483 530.2155542 76.1036483 530.2155542 74.80262756 530.56298828 C68.6796808 532.11234633 64.07419459 532.03899478 58.16015625 529.58984375 C57.1537207 529.18862305 57.1537207 529.18862305 56.12695312 528.77929688 C54.75262659 528.2189045 53.38020899 527.65380717 52.00976562 527.08398438 C47.52621952 525.30862048 43.88773411 524.29234826 39 525 C36.17572319 526.40292594 33.75119224 528.21503105 31.25 530.125 C30.52047119 530.66125 29.79094238 531.1975 29.03930664 531.75 C27.48269028 532.89685878 25.93145906 534.05105699 24.38525391 535.21191406 C22.01313621 536.99015255 19.62505384 538.74435091 17.23046875 540.4921875 C8.73041378 546.70559699 0.29069157 552.99949913 -8.10180664 559.35742188 C-12.78587748 562.89293874 -12.78587748 562.89293874 -15 564 C-17.4750171 562.88568235 -19.67883419 561.41849022 -22 560 C-22.21814582 568.23827992 -21.37156675 576.32076352 -20.50390625 584.5 C-20.34908222 585.98686887 -20.19454084 587.4737672 -20.04026794 588.96069336 C-19.7179204 592.05728973 -19.39227103 595.1535157 -19.06420898 598.24951172 C-18.64324384 602.22471324 -18.23052294 606.20072095 -17.82019138 610.17703247 C-17.50342511 613.23815695 -17.18244436 616.29882792 -16.86015129 619.359375 C-16.70615608 620.82652304 -16.55346983 622.29380908 -16.40210152 623.76123047 C-16.19105342 625.80090361 -15.97374196 627.83992579 -15.75610352 629.87890625 C-15.63396988 631.0397876 -15.51183624 632.20066895 -15.38600159 633.39672852 C-15.27558181 635.92300045 -15.27558181 635.92300045 -14 637 C-10.89386927 637.01167502 -7.80369 636.96519288 -4.69921875 636.89453125 C-1.72778789 636.87043032 1.24359131 636.85696437 4.21508789 636.84350586 C6.26063108 636.82302947 8.30608303 636.7830398 10.35083008 636.72241211 C29.19799102 636.19679408 29.19799102 636.19679408 35.61454773 642.11039734 C37.95442407 644.61964918 39.97129832 647.22783946 42 650 C43.53503757 651.81811771 45.07561689 653.63159183 46.625 655.4375 C48.08867199 657.28745526 49.54692199 659.14171196 51 661 C51.77730469 661.94875 52.55460938 662.8975 53.35546875 663.875 C55.48915316 666.5344731 57.53277602 669.23670012 59.53684998 671.99447632 C60.52297506 673.34614714 61.52149101 674.68885387 62.53138733 676.02285767 C73.32637235 690.55704389 74.56511038 702.5123778 73.75 720.25 C73.6896264 722.56756719 73.63490587 724.88528878 73.5859375 727.203125 C73.45553004 732.80553171 73.25631213 738.40201133 73 744 C75.44083997 740.97830609 77.81927902 737.9338862 80.09375 734.78515625 C80.64933594 734.01623047 81.20492187 733.24730469 81.77734375 732.45507812 C82.34582031 731.66552734 82.91429687 730.87597656 83.5 730.0625 C84.06847656 729.27681641 84.63695312 728.49113281 85.22265625 727.68164062 C86.82474375 725.46064925 88.42549994 723.24065337 90 721 C91.04111938 719.73071655 91.04111938 719.73071655 92.10327148 718.43579102 C94.76699687 713.61063882 95.01284279 709.11596699 95.44140625 703.6796875 C95.58388039 702.03711472 95.58388039 702.03711472 95.72923279 700.36135864 C95.92366997 698.04731227 96.10885869 695.73247258 96.28540039 693.41699219 C96.56020545 689.90432975 96.88481333 686.39866108 97.21289062 682.890625 C98.79595647 668.00825715 98.79595647 668.00825715 94.03442383 654.21582031 C92.68513021 651.32552319 93.15828367 649.85543097 94.125 646.875 C95.0703125 644.7421875 95.0703125 644.7421875 96 643 C97.26303331 640.86009947 97.26303331 640.86009947 96.9375 637.5625 C97 634 97 634 99 631 C99.2710722 628.98639089 99.2710722 628.98639089 99.3125 626.8125 C99.71569424 622.41273128 101.05614728 619.89725596 103.55178833 616.32316589 C110.18406366 605.68392291 113.35277034 592.43600856 117.06054688 580.55639648 C117.77028674 578.31013491 118.49787794 576.06943609 119.24316406 573.8347168 C125.13613617 556.87418316 125.13613617 556.87418316 121.54248047 539.95336914 C121.03346191 538.97875732 120.52444336 538.00414551 120 537 C119.43661903 535.51063807 118.8904976 534.01441772 118.375 532.5078125 C117.92125 531.39148438 117.4675 530.27515625 117 529.125 C116.54625 527.97257813 116.0925 526.82015625 115.625 525.6328125 C114.28935248 522.8805422 114.28935248 522.8805422 111.97631836 522.20263672 C107.65134748 521.90817967 103.91570977 523.0162415 99.75390625 524.125 Z M-111 663 C-110 666 -110 666 -110 666 Z " fill="#000000" transform="translate(508,33)"/>
<path d="M0 0 C5.01227737 1.86763406 9.74890074 4.27539039 14.53515625 6.6484375 C15.90866493 7.32913803 15.90866493 7.32913803 17.30992126 8.02359009 C19.24114465 8.98230268 21.17176045 9.94224003 23.10180664 10.90332031 C25.07561387 11.8844459 27.05120636 12.86198813 29.02856445 13.8359375 C31.88887658 15.24479413 34.7437676 16.66412259 37.59765625 18.0859375 C38.48002457 18.51836761 39.36239288 18.95079773 40.27149963 19.39633179 C50.11121621 24.33364864 50.11121621 24.33364864 52 30 C52.24748926 34.53633251 52.19422689 39.08258266 52.1875 43.625 C52.18722809 44.30960297 52.18695618 44.99420593 52.18667603 45.69955444 C52.1370096 73.21912663 49.56823294 100.62181337 47 128 C47.81404297 127.36771484 47.81404297 127.36771484 48.64453125 126.72265625 C49.35996094 126.17480469 50.07539062 125.62695312 50.8125 125.0625 C51.52019531 124.51722656 52.22789062 123.97195313 52.95703125 123.41015625 C55 122 55 122 58 121 C57.40954676 123.99008448 56.56283521 125.89566858 54.671875 128.27734375 C53.96611328 129.17163086 53.96611328 129.17163086 53.24609375 130.08398438 C52.50552734 131.00147461 52.50552734 131.00147461 51.75 131.9375 C51.27175781 132.54529297 50.79351563 133.15308594 50.30078125 133.77929688 C44.80068691 140.68795197 39.07832497 145.46274569 31.5625 150.0625 C29.10403588 151.58549285 26.64666193 153.11006251 24.19335938 154.64135742 C22.8346281 155.48300252 21.46750957 156.31145795 20.08789062 157.1184082 C17.00652943 158.95125061 17.00652943 158.95125061 15.2734375 161.97265625 C15.58949044 168.47605323 17.49391139 174.01447587 20 180 C20.99 180 21.98 180 23 180 C27.57794912 174.8360734 30.44959854 168.34599894 33 162 C33.33 162 33.66 162 34 162 C33.96234085 170.84989935 31.33672528 177.1587547 25.421875 183.76171875 C20.4206602 188.41374963 14.60151407 192.19103194 9.00170898 196.08081055 C4.89478714 198.93507455 0.84349968 201.84322783 -3.15234375 204.8515625 C-4.00272217 205.4902124 -4.85310059 206.1288623 -5.72924805 206.78686523 C-7.38056752 208.03195212 -9.02678659 209.28383924 -10.66723633 210.54321289 C-11.42157959 211.11031982 -12.17592285 211.67742676 -12.953125 212.26171875 C-13.94554199 213.01908325 -13.94554199 213.01908325 -14.95800781 213.79174805 C-17.29477583 215.17441961 -19.32880179 215.60907171 -22 216 C-23.48413185 214.06613122 -24.96237428 212.12821927 -26.4375 210.1875 C-26.85837891 209.64029297 -27.27925781 209.09308594 -27.71289062 208.52929688 C-29.61144475 206.02320543 -30.99806673 204.00579981 -32 201 C-26.83720776 195.74199233 -21.65972396 190.57335218 -16.0625 185.77734375 C-13.67535264 183.7202376 -11.33765244 181.61315228 -9 179.5 C2.93543244 168.7379434 2.93543244 168.7379434 9 164 C7.56350916 163.41418595 6.12572175 162.83155156 4.6875 162.25 C3.78257812 161.88003906 2.87765625 161.51007813 1.9453125 161.12890625 C-0.98588093 159.96480953 -0.98588093 159.96480953 -4.0078125 159.08984375 C-11.33509622 156.83304036 -11.33509622 156.83304036 -13.359375 154.296875 C-14.61026735 151.48826765 -15 149.06238594 -15 146 C-30.69773403 153.26862688 -46.38380638 160.55730673 -62 168 C-62 167.01 -62 166.02 -62 165 C-59.70897231 163.08065499 -57.43242283 161.34882804 -55 159.625 C-53.52139466 158.54837291 -52.04489022 157.46885561 -50.5703125 156.38671875 C-49.81008789 155.82903809 -49.04986328 155.27135742 -48.26660156 154.69677734 C-44.72115464 152.0426567 -41.29588116 149.24930974 -37.875 146.4375 C-32.95706958 142.40408086 -28.01499058 138.41220657 -23 134.5 C-17.9513454 130.55830434 -12.96237056 126.54975068 -8 122.5 C-2.48671619 118.00065344 3.07112246 113.56740177 8.68017578 109.18823242 C15.86904059 103.56104386 22.93004891 97.77532368 30 92 C29.83701416 91.38866211 29.67402832 90.77732422 29.50610352 90.14746094 C28.94701997 87.77519905 28.90171281 85.68352885 28.9375 83.25 C28.94652344 82.45078125 28.95554687 81.6515625 28.96484375 80.828125 C28.97644531 80.22484375 28.98804688 79.6215625 29 79 C27.95199219 79.2165625 26.90398437 79.433125 25.82421875 79.65625 C24.44534373 79.93765307 23.06643574 80.21889464 21.6875 80.5 C20.99720703 80.64308594 20.30691406 80.78617188 19.59570312 80.93359375 C16.67475227 81.52625044 13.98891878 82 11 82 C11 83.98 11 85.96 11 88 C1.98496985 88.63342746 -6.95696626 89.13589697 -16 89 C-15.476766 83.63820009 -14.92605034 78.28047379 -14.34115601 72.92501831 C-14.00183269 69.81786463 -13.66632518 66.71030231 -13.33093262 63.60272217 C-13.15021617 61.93464936 -12.96814283 60.26672307 -12.78479004 58.59893799 C-11.70038973 48.70620889 -10.84109091 38.8824577 -10.41162109 28.93823242 C-9.90183676 17.69910498 -9.45049434 9.26476919 -1 1 C-0.67 0.67 -0.34 0.34 0 0 Z " fill="#000000" transform="translate(714,542)"/>
<path d="M0 0 C2.61278553 2.27613555 3.58925686 4.11442465 4.53515625 7.4296875 C4.7868457 8.30020752 5.03853516 9.17072754 5.29785156 10.06762695 C6.33230497 13.86557704 7.35710976 17.66496881 8.33837891 21.47705078 C8.86224944 23.47471797 9.44273087 25.45752973 10.04296875 27.43359375 C12.60416439 37.86232958 8.52538336 48.1530328 5.75439453 58.19726562 C3.19727035 67.69751987 1.86702578 77.2801517 1.0234375 87.0625 C0.93832916 88.04759048 0.85322083 89.03268097 0.76553345 90.04762268 C-0.35933183 103.65773148 -0.96818139 117.29851157 -1.625 130.9375 C-1.75953962 133.6751738 -1.89538083 136.41278252 -2.03125 139.15039062 C-2.35864922 145.7667131 -2.68128984 152.38325357 -3 159 C-3.66 159 -4.32 159 -5 159 C-6.29041914 157.55235738 -7.50767134 156.03910851 -8.6875 154.5 C-9.76257813 153.13101563 -9.76257813 153.13101563 -10.859375 151.734375 C-11.56578125 150.83203125 -12.2721875 149.9296875 -13 149 C-17.70562985 143.04508789 -22.51608566 138.9456378 -29 135 C-29.99 134.34 -30.98 133.68 -32 133 C-32.31225586 130.95751953 -32.31225586 130.95751953 -32.21484375 128.3828125 C-32.18124756 127.40393066 -32.14765137 126.42504883 -32.11303711 125.41650391 C-32.05510986 124.33030762 -31.99718262 123.24411133 -31.9375 122.125 C-31.88150635 120.96790527 -31.8255127 119.81081055 -31.76782227 118.61865234 C-30.43354302 94.49374135 -27.09451634 70.54913277 -23.58010864 46.66082764 C-23.23667018 44.31477098 -22.89942939 41.96779819 -22.568573 39.61993408 C-22.09859072 36.3083431 -21.60185574 33.0018448 -21.09765625 29.6953125 C-20.89289169 28.20698914 -20.89289169 28.20698914 -20.68399048 26.68859863 C-19.40046268 18.60563576 -16.33695262 14.73512611 -10.0625 9.5 C-6.52497438 6.48605502 -3.24485782 3.32597926 0 0 Z " fill="#000000" transform="translate(777,343)"/>
<path d="M0 0 C10.97402777 8.17009116 15.37545526 26.00826998 19.5 38.5625 C19.73167877 39.25801971 19.96335754 39.95353943 20.20205688 40.6701355 C25.13980111 55.55435709 28.78106582 70.66094745 32 86 C29 87 29 87 27.10009766 86.18994141 C26.37870605 85.74827637 25.65731445 85.30661133 24.9140625 84.8515625 C24.0799585 84.34906982 23.24585449 83.84657715 22.38647461 83.32885742 C21.01954468 82.485448 21.01954468 82.485448 19.625 81.625 C17.63993037 80.424776 15.654219 79.22561294 13.66796875 78.02734375 C12.59853027 77.37878418 11.5290918 76.73022461 10.42724609 76.06201172 C6.81734752 73.89010665 3.18898729 71.75289567 -0.44921875 69.62890625 C-1.39677032 69.07562653 -1.39677032 69.07562653 -2.36346436 68.51116943 C-4.86810038 67.04959273 -7.37337325 65.58911045 -9.87884521 64.12896729 C-18.32659305 59.20195886 -26.69300871 54.16031229 -35 49 C-30.2322809 31.80738117 -22.47512942 10.20446832 -7.015625 -0.35546875 C-4.28462559 -1.22875345 -2.70545423 -0.90181808 0 0 Z " fill="#000000" transform="translate(280,228)"/>
<path d="M0 0 C1.9375 0.75 1.9375 0.75 4 2 C4.90856598 4.27411366 5.19679665 5.46785023 4.33837891 7.7890625 C3.97147949 8.39492187 3.60458008 9.00078125 3.2265625 9.625 C2.81809082 10.32149658 2.40961914 11.01799316 1.98876953 11.7355957 C1.53872559 12.48284912 1.08868164 13.23010254 0.625 14 C-8.88783223 30.45750368 -16.20171129 47.32508052 -20 66 C-20.66 66 -21.32 66 -22 66 C-24.96809349 61.48849789 -25.42868254 58.24696338 -24.6875 53.06640625 C-20.42370201 34.04889818 -10.5800273 16.19512558 0 0 Z " fill="#000000" transform="translate(681,195)"/>
<path d="M0 0 C6.78250426 2.88760082 13.52325117 8.44028164 17 15 C18.56046178 22.21633959 17.8283995 29.71890758 17 37 C15.32943228 36.34316996 13.6636345 35.67419766 12 35 C11.14019531 34.67386719 10.28039062 34.34773438 9.39453125 34.01171875 C6.08859861 32.31624044 4.27826758 30.97927299 2 28 C-0.54709549 19.07268943 -0.07593397 9.21332208 0 0 Z " fill="#000000" transform="translate(134,186)"/>
</svg>
